<?xml version="1.0" encoding="utf-8"?>
<svg viewBox="49.995 180.67 2000.01 738.66" xmlns="http://www.w3.org/2000/svg" xmlns:bx="https://boxy-svg.com">
  <defs>
    <style bx:fonts="abeatbyKai">@font-face { font-family: abeatbyKai; font-variant: normal; font-style: normal; font-weight: normal; src: ; }</style>
    <style type="text/css">.fil0 { fill: white; }.fnt0 { font-weight: normal; font-size: 222.83px; font-family: abeatbyKai; }</style>
  </defs>
  <g transform="matrix(1, 0, 0, 1, -0.005005, 130.680206)">
    <g id="Layer_x0020_1">
      <g id="_1821444908080">
        <g>
          <path class="fil0" d="M1177.14 272.16c-12.57,-9.24 -13.99,-37.26 -32.86,-37.26l-357.14 0 0 -43 -74.29 0c-7.66,0 -4.28,20.21 -4.28,25.8l0 154.8c0,25.89 -2,27.99 -11.02,50.58 -11.93,29.85 -22.96,58.87 -34.68,88.46 -8.28,20.91 -24.11,66.05 -34.18,86.11l-1.02 1.84c-0.1,0.19 -0.33,0.62 -0.52,0.91 -0.87,-10.43 -8.3,-23.56 -11.96,-33.86l-32.15 -85.27c-1.35,-3.72 -1.82,-4.58 -3.11,-8.34 -1.35,-3.94 -0.85,-7.26 -5.63,-7.26l-75.71 0c0.17,7.69 105.91,272.7 118.78,305.09 8,20.13 11.43,25.61 20.61,2.46l50.81 -129.61c2.78,-6.91 56.21,-139.03 56.94,-147.84 4.19,3.08 6.62,12.69 8.36,17.41 2.49,6.76 4.75,12.6 7.15,18.63l57.95 148.25c4.94,13.02 9.9,23.74 14.58,36.97 4.59,12.99 10.13,24.8 14.61,36.94 2.7,7.34 14.56,50.08 23.77,27.72 1.66,-4.02 2.43,-6.42 3.99,-10.33l24.41 -61.5c9.83,-27.78 22.22,-54.16 32.11,-81.02 3.96,-10.76 62.84,-152.84 63.07,-163.18l-75.71 0c-4.61,0 -3.9,2.28 -5.29,6.16 -7.21,20.11 -46.71,116.84 -47.57,127.13 -5.3,-3.9 -18.35,-42.45 -21.02,-49.14 -5.96,-14.94 -58.98,-146.03 -58.98,-155.82l0 -126.13c117.41,0 232.85,1.43 351.43,1.43 1.29,5.54 4.04,8.48 6.82,13.22l23.62 39.37c10.6,19.49 22.81,18.53 26.93,6.41 6.54,-19.24 9.57,-41.06 16.02,-59.89 2.15,-6.27 2.66,-7.61 3.94,-14.68 1.96,-10.86 7.44,-18.95 8.38,-30.29 1.56,1.8 3.11,3.6 4.24,5.78 16.72,32.31 12.27,36.17 41.55,38.57 26.23,2.16 62.58,0.07 89.93,0.07 6.43,27.68 5.74,22.93 32.85,22.93 1.46,-6.27 1.47,-7.78 1.39,-15.81 -0.11,-11.09 1.17,-8.28 2.9,-15.72 4.35,0.1 5.21,0.65 8.57,1.43 3.75,7.83 3.43,20.05 1.43,28.67 15.05,3.52 32.99,1.43 48.57,1.43 0,-7.53 -3.76,-30.1 7.14,-30.1 13.26,0 -0.55,25.74 7.8,30.87 7.68,4.71 29.71,-5.32 42.58,4.58 2.24,1.72 3.46,2.57 5.72,4.29 12.5,9.5 31.56,10 44.31,9.26 17.52,-1.01 60.19,-1.83 75.9,0.56 20.21,3.07 106.15,0.61 135.11,0.61 8.49,0 10,-10.49 10,-17.2l0 -81.7c0,-8.95 -1.42,-13.45 -6.83,-17.52 -7.39,-5.56 -8.95,-2.87 -18.83,-2.51 -42.52,1.55 -101.95,-0.04 -145.77,-0.04 -16.19,0 -32.38,0 -48.57,0 -18.84,-0 -29.05,-0.09 -41.18,7.42 -16.76,10.38 -12.59,12.69 -35.96,12.65 -16.19,-0.02 -32.38,0 -48.57,0 -2.09,9.02 1.29,30.1 -7.14,30.1 -8.93,0 -5.72,-24.34 -5.72,-30.1 -15.48,0 -31.93,-2.65 -46.36,-0.65 -9.18,1.26 -19.35,1.3 -19.35,17.85l0 7.17 -91.43 -1.43c-0.46,-5.6 -2.68,-6.64 -5.28,-10.47 -7.3,-10.74 -35.73,-65.5 -44.72,-65.5 -17.06,0 -16.69,24.3 -20.72,36.54 -1.9,5.79 -2.83,9.69 -4.51,15.54l-12.43 44.86c-1.53,4.81 -3.65,11.25 -3.76,16.29z"/>
          <path class="fil0" d="M50 237.76c0,69.43 14.28,128.22 72.28,166.84 24.46,16.29 45.56,24.35 79.03,31.07 48.96,9.83 96.67,8.48 148.69,8.48 4.39,0 8.57,-1.33 8.57,-5.73l0 -240.8 -155.72 0 0 75.96 77.15 0 0 97.46c-25.59,0 -47.55,-0.34 -70.56,-8.04 -52.3,-17.5 -80.87,-51.49 -80.87,-115.22 0,-30.05 5.63,-51.4 19.02,-74.08l13.43 -18.06c18.97,-19.08 63.7,-32.55 91.84,-32.55l105.72 0 0 -68.8c0,-3.3 -1,-4.3 -4.29,-4.3l-68.09 0c-61.98,1.09 -121.59,8.17 -171.72,46.06 -41,30.98 -64.48,86.11 -64.48,141.7z"/>
          <path class="fil0" d="M1741.43 399.72l0 150.5c0,3.3 0.99,4.3 4.28,4.3l70 0c3.29,0 4.29,-1 4.29,-4.3l0 -83.13c47.22,0 78.27,2.37 116.56,32.11 40.44,31.42 46.03,117.82 14.61,166.85 -5.38,8.39 -8.3,10.98 -15.07,17.84 -25.5,25.79 -74.19,31.15 -116.09,31.15l0 -83.13c0,-3.3 -1,-4.3 -4.29,-4.3l-70 0c-3.29,0 -4.28,1 -4.28,4.3l0 150.5c0,3.35 2.37,5.74 5.71,5.74 87.24,0 166.74,4.41 235.71,-44.44 42.97,-30.43 67.15,-88.33 67.15,-144.76 0,-53.36 -8.08,-94.64 -38.15,-135.15 -37.65,-50.72 -118.06,-69.81 -193.28,-69.81l-71.43 0c-3.34,0 -5.71,2.38 -5.71,5.73z"/>
          <path class="fil0" d="M1198.57 399.72l0 63.07c0,6.84 11.58,4.3 24.28,4.3l88.57 0c24.25,0 56,-1.92 72.56,16.07 14.02,15.24 21,72.8 -43.98,72.8l-141.43 0 0 226.46c0,3.35 2.37,5.74 5.71,5.74 16.61,0 57.8,1.75 71.43,-1.44l0 -157.66c54.4,0 39.57,-4.91 51.43,18.64l19.54 40.59c3.61,7.24 5.87,13.28 9.51,20.56l33.56 70.96c1.52,3.9 2.41,8.35 7.39,8.35 90.74,0 82.48,5.37 72.26,-19.46 -3.24,-7.85 -6.85,-13.54 -10.36,-21.14 -12.94,-28.01 -41.24,-83.95 -51.07,-107.85 -3.08,-7.49 -9.21,-15.03 -9.4,-23.54 14.87,-1.24 41.47,-21.25 51.46,-34.37 25.37,-33.3 27.63,-85.48 10.48,-123.81 -19.87,-44.38 -69.09,-63.99 -119.08,-63.99l-137.15 0c-3.34,0 -5.71,2.38 -5.71,5.73z"/>
          <path class="fil0" d="M372.85 55.74l0 382.69c0,4.41 4.19,5.73 8.57,5.73l180 0c3.29,0 4.28,-1 4.28,-4.3l0 -70.23 -114.28 0 0 -87.43 158.57 0c4.39,0 5.71,-4.2 5.71,-8.6 0,-15.78 1.7,-49.58 -1.43,-63.06 -15.23,-3.56 -137.21,-1.43 -162.85,-1.43l0 -87.43 114.28 0 0 -71.67 -187.14 0c-3.35,0 -5.72,2.38 -5.72,5.73z"/>
          <path class="fil0" d="M1488.57 399.72l0 382.69c0,3.35 2.37,5.74 5.71,5.74l187.14 0 0 -74.53 -114.28 0 0 -87.43 158.57 0c3.29,0 4.29,-1 4.29,-4.3l0 -63.06c0,-3.3 -1,-4.3 -4.29,-4.3l-158.57 0 0 -87.43 110 0c3.29,0 4.28,-1 4.28,-4.3l0 -68.8 -187.14 0c-3.34,0 -5.71,2.38 -5.71,5.73z"/>
          <path class="fil0" d="M1067.14 719.35l-41.43 0c-3.34,0 -5.71,2.38 -5.71,5.73l0 57.33c0,3.35 2.37,5.74 5.71,5.74l160 0c3.34,0 5.72,-2.38 5.72,-5.74l0 -57.33c0,-3.35 -2.37,-5.73 -5.72,-5.73l-40 0 0 -321.06c0,-3.3 -0.99,-4.3 -4.28,-4.3l-74.29 0 0 325.36z"/>
          <path class="fil0" d="M625.71 55.74c0,15.59 -1.68,48.24 1.43,61.63 15.73,3.68 202.18,1.43 234.29,1.43 4.39,0 8.57,-1.33 8.57,-5.73l0 -57.33c0,-3.35 -2.37,-5.73 -5.72,-5.73l-232.85 0c-3.35,0 -5.72,2.38 -5.72,5.73z"/>
          <path class="fil0" d="M1790 265c0,8.87 -2.14,3.69 0,12.9l110.08 0.08c15.33,0.24 11.34,4.43 11.34,-53.11l-121.43 -1.44 0 41.57z"/>
          <path class="fil0" d="M1970 229.17c0,60.31 -2.65,45.78 10,48.73 5,-21.55 29.98,0 30,0 4.55,0 4.3,-0.74 8.43,-3.01 24.77,-13.59 42.03,-20.22 15.31,-38.01l-19.76 -10.49c-4.76,-1.88 -5.11,-0.89 -9.25,1.68 -3.02,1.87 -6.22,4.42 -9,5.55 -12.61,5.13 -9.13,-8.76 -21.44,-8.76 -3.29,0 -4.28,1 -4.28,4.3z"/>
          <path class="fil0" d="M1915.71 257.83c0,26.31 -8.8,20.07 50,20.07l0 -53.03c-63.35,0 -46.92,-3.54 -48.76,14.07 -0.65,6.22 -1.24,10.53 -1.24,18.89z"/>
        </g>
      </g>
    </g>
  </g>
</svg>